<svg xmlns="http://www.w3.org/2000/svg" width="100" height="26.547" viewBox="0 0 100 26.547" xmlns:xlink="http://www.w3.org/1999/xlink"><defs><clipPath id="a"><rect width="100" height="26.547" fill="#5d7261"></rect></clipPath></defs><g clip-path="url(#a)"><path d="M3.46,8.65H15.812V7.526A36.085,36.085,0,0,0,15.6,3.18,7.291,7.291,0,0,0,14.968.754,8.44,8.44,0,0,1,16.305.185,3.627,3.627,0,0,1,17.37,0a1.151,1.151,0,0,1,1.022.427,2.851,2.851,0,0,1,.293,1.522q0,.37-.129,3.365t-.129,5.612q0,3.969.214,5.968a8.345,8.345,0,0,0,.715,2.924,6.458,6.458,0,0,1-1.272.548,4.066,4.066,0,0,1-1.158.178,1.214,1.214,0,0,1-1.051-.406,2.691,2.691,0,0,1-.293-1.487q0-.071.093-2.717t.107-5.235H3.431v1.423a45.258,45.258,0,0,0,.215,5,7.825,7.825,0,0,0,.686,2.7,7.943,7.943,0,0,1-1.28.54,3.654,3.654,0,0,1-1.079.185A1.219,1.219,0,0,1,.9,20.131a3.127,3.127,0,0,1-.286-1.622q0-.583.15-3.848t.15-5.94A48.34,48.34,0,0,0,.7,3.507,7.949,7.949,0,0,0,0,.754,8.384,8.384,0,0,1,1.287.192,3.436,3.436,0,0,1,2.345,0,1.188,1.188,0,0,1,3.388.427a2.72,2.72,0,0,1,.3,1.494q0,.213-.093,2.44T3.46,8.65" transform="translate(0 0)" fill="#5d7261"></path><path d="M120.17,41.616a3.3,3.3,0,0,1,.465.718,1.579,1.579,0,0,1,.15.647q0,.768-1.151,1.259a7.767,7.767,0,0,1-3.009.491,7.419,7.419,0,0,1-5.354-1.856,6.768,6.768,0,0,1-1.937-5.129,7.614,7.614,0,0,1,1.951-5.4,6.536,6.536,0,0,1,5.011-2.1,5.638,5.638,0,0,1,3.874,1.337A4.351,4.351,0,0,1,121.686,35a2.453,2.453,0,0,1-1.258,2.333,9.449,9.449,0,0,1-4.275.7q-1.129,0-2.252-.078t-2.223-.235v.2a4.705,4.705,0,0,0,1.315,3.514,4.872,4.872,0,0,0,3.574,1.295,6.627,6.627,0,0,0,1.959-.277,5.371,5.371,0,0,0,1.644-.832m-8.32-5.591q.943.156,2.08.235t2.452.078a5.72,5.72,0,0,0,2.388-.327,1.225,1.225,0,0,0,.6-1.181,2.53,2.53,0,0,0-.9-2.048,3.712,3.712,0,0,0-2.459-.754,3.835,3.835,0,0,0-2.759,1.053,5.025,5.025,0,0,0-1.4,2.945" transform="translate(-87.017 -24.075)" fill="#5d7261"></path><path d="M175.732,33.076a6.69,6.69,0,0,1,1.079-1.458,1.431,1.431,0,0,1,.951-.463q.657,0,1.194.875a24.185,24.185,0,0,1,1.58,4.076q.157.469.443,1.351,1.687,5.292,2.073,5.292.257,0,.843-.768a15.932,15.932,0,0,0,1.272-2.034,23.889,23.889,0,0,0,1.758-3.877,9.888,9.888,0,0,0,.557-3.08,4.567,4.567,0,0,0-.079-.854,5.385,5.385,0,0,0-.222-.811,4.142,4.142,0,0,1,.572-.128,4.077,4.077,0,0,1,.6-.043,2.2,2.2,0,0,1,1.394.349,1.388,1.388,0,0,1,.422,1.131,10.263,10.263,0,0,1-.936,3.692,33.433,33.433,0,0,1-2.695,5.043,19.4,19.4,0,0,1-2.409,3.272,2.536,2.536,0,0,1-1.694.868q-1.287,0-2.6-4.111-.458-1.394-.729-2.205a25.363,25.363,0,0,0-1.68-4.048,6,6,0,0,0-1.694-2.07" transform="translate(-139.863 -24.796)" fill="#5d7261"></path><path d="M267.956,41.616a3.3,3.3,0,0,1,.465.718,1.579,1.579,0,0,1,.15.647q0,.768-1.151,1.259a7.768,7.768,0,0,1-3.01.491,7.419,7.419,0,0,1-5.354-1.856,6.768,6.768,0,0,1-1.937-5.129,7.614,7.614,0,0,1,1.951-5.4,6.537,6.537,0,0,1,5.011-2.1,5.639,5.639,0,0,1,3.874,1.337A4.351,4.351,0,0,1,269.472,35a2.453,2.453,0,0,1-1.258,2.333,9.45,9.45,0,0,1-4.275.7q-1.13,0-2.252-.078t-2.223-.235v.2a4.705,4.705,0,0,0,1.315,3.514,4.872,4.872,0,0,0,3.574,1.295,6.627,6.627,0,0,0,1.959-.277,5.371,5.371,0,0,0,1.644-.832m-8.32-5.591q.943.156,2.08.235t2.452.078a5.72,5.72,0,0,0,2.388-.327,1.225,1.225,0,0,0,.6-1.181,2.53,2.53,0,0,0-.9-2.048,3.712,3.712,0,0,0-2.459-.754,3.835,3.835,0,0,0-2.759,1.053,5.025,5.025,0,0,0-1.4,2.945" transform="translate(-204.638 -24.075)" fill="#5d7261"></path><path d="M326.822,49.789a7.175,7.175,0,0,0,1.337-1.43,12.6,12.6,0,0,0,1.179-2.1l.472-.982q-3.074-7.17-4.3-9.247T323.377,33.8a4.769,4.769,0,0,1,.815-1.835,1.48,1.48,0,0,1,1.144-.669,1.215,1.215,0,0,1,.729.206,2.031,2.031,0,0,1,.558.761q.072.143,1.5,3.592t3,6.708q1.973-4.14,2.952-6.658a11.889,11.889,0,0,0,.979-3.471,1.737,1.737,0,0,0-.036-.356c-.024-.114-.05-.223-.079-.327q.1-.028.315-.1a5.43,5.43,0,0,1,1.487-.356,1.136,1.136,0,0,1,.815.285.99.99,0,0,1,.3.754,24,24,0,0,1-2.023,4.78q-2.023,4.169-3.453,7.64-.429,1.039-1.1,2.774-1.515,3.926-2.416,3.927a1.616,1.616,0,0,1-1-.434,5.3,5.3,0,0,1-1.044-1.231" transform="translate(-257.371 -24.907)" fill="#5d7261"></path><path d="M415.079,43.864a6.347,6.347,0,0,1-1.015.541,2.187,2.187,0,0,1-.8.185,1.038,1.038,0,0,1-.893-.377A2.274,2.274,0,0,1,412.049,43a8.26,8.26,0,0,1-2.123,1.352,5.478,5.478,0,0,1-2.137.441,4.947,4.947,0,0,1-3.46-1.2,4.045,4.045,0,0,1-1.315-3.144,4.176,4.176,0,0,1,1.809-3.535,8.041,8.041,0,0,1,4.868-1.33q.5,0,1.065.036t1.208.107a1.612,1.612,0,0,0,.036-.263q.007-.135.007-.32a2.926,2.926,0,0,0-.836-2.255,3.441,3.441,0,0,0-2.423-.775,4.752,4.752,0,0,0-2.166.434,3.349,3.349,0,0,0-1.38,1.345,1.437,1.437,0,0,1-.779-.441,1.211,1.211,0,0,1-.265-.811q0-1.039,1.322-1.715a7.6,7.6,0,0,1,3.453-.676,5.459,5.459,0,0,1,3.924,1.259,4.993,4.993,0,0,1,1.308,3.763q0,.47-.043,1.636t-.043,1.878a16.934,16.934,0,0,0,.236,3.158,4.816,4.816,0,0,0,.765,1.921m-3.145-6.331q-.658-.1-1.18-.149t-.893-.05a6.2,6.2,0,0,0-3.346.733,2.432,2.432,0,0,0-1.129,2.184,2.282,2.282,0,0,0,.786,1.835,3.25,3.25,0,0,0,2.173.669,4.878,4.878,0,0,0,1.951-.391,5.157,5.157,0,0,0,1.666-1.174q-.029-.711-.036-1.159c-.005-.3-.007-.585-.007-.861q0-.256.014-.8t0-.832" transform="translate(-320.752 -24.075)" fill="#5d7261"></path><path d="M461.59,2.394a3.316,3.316,0,0,1,1.584.414,2.952,2.952,0,0,1,1.2,1.185,3.206,3.206,0,0,1,.006,3.2,2.986,2.986,0,0,1-1.191,1.187,3.25,3.25,0,0,1-3.205,0,3,3,0,0,1-1.193-1.187,3.192,3.192,0,0,1,.006-3.2,2.963,2.963,0,0,1,1.206-1.185,3.315,3.315,0,0,1,1.583-.414m0,.531a2.751,2.751,0,0,0-1.321.346,2.491,2.491,0,0,0-1.005.99,2.653,2.653,0,0,0-.006,2.667,2.523,2.523,0,0,0,1,.99,2.694,2.694,0,0,0,2.672,0,2.509,2.509,0,0,0,.994-.99,2.666,2.666,0,0,0-.006-2.667,2.473,2.473,0,0,0-1.005-.99,2.756,2.756,0,0,0-1.319-.346m-1.413,4.447V3.923h1.191a2.925,2.925,0,0,1,.883.1.856.856,0,0,1,.435.334.881.881,0,0,1,.162.505.916.916,0,0,1-.271.658,1.074,1.074,0,0,1-.719.314.948.948,0,0,1,.295.183,3.926,3.926,0,0,1,.512.684l.423.675H462.4l-.307-.544a2.792,2.792,0,0,0-.585-.8.723.723,0,0,0-.448-.119h-.329V7.372Zm.559-1.941h.679a1.1,1.1,0,0,0,.664-.145.468.468,0,0,0,.177-.382.463.463,0,0,0-.085-.274.509.509,0,0,0-.237-.181,1.767,1.767,0,0,0-.561-.059h-.636Z" transform="translate(-364.808 -1.905)" fill="#5d7261"></path></g></svg>